<mxfile host="app.diagrams.net" modified="2023-04-15T16:07:01.652Z" agent="Mozilla/5.0 (Windows NT 10.0; Win64; x64) AppleWebKit/537.36 (KHTML, like Gecko) Chrome/112.0.0.0 Safari/537.36" version="21.1.8" etag="qOvhS6QbcSx9uIWnzule" type="github">
  <diagram name="Page-1" id="hi8PZmGKxCe90Pan3clQ">
    <mxGraphModel>
      <root>
        <mxCell id="0" />
        <mxCell id="1" parent="0" />
      </root>
    </mxGraphModel>
  </diagram>
</mxfile>
